# xmcd
#
# Track frame offsets:
#	182
#	17020
#	37987
#	48527
#	68152
#	79425
#	90022
#	104842
#	119937
#	137875
#	151712
#	173110
#
# Disc length: 2481 seconds
#
# Revision: 2
# Processed by: cddbd v1.5.2PL0 Copyright (c) Steve Scherf et al.
# Submitted via: audiograbber 1.83.01
#
DISCID=9e09af0c
DTITLE=Tanya Tucker and Friends - Greatest Hits - Live In Concert
DYEAR=1900
DGENRE=Country
TTITLE0=The Night They Drove Ole Dixie Down
TTITLE1=Texas When I Die
TTITLE2=Hoyt Axton - Boney Fingers
TTITLE3=Delta Dawn
TTITLE4=Stella Parton - Standard Lie
TTITLE5=Stella Parton - Danger of a Stranger
TTITLE6=What's Your Mamma's Name
TTITLE7=Hoyt Axton - Evangeline
TTITLE8=Hoyt Axton - Wild Bull Rider
TTITLE9=Hoyt Axton - Joy to the World
TTITLE10=Baby I'm Yours
TTITLE11=San Antonio Stroll
EXTD=
EXTT0=
EXTT1=
EXTT2=
EXTT3=
EXTT4=
EXTT5=
EXTT6=
EXTT7=
EXTT8=
EXTT9=
EXTT10=
EXTT11=
PLAYORDER=
